HIERARCHY
ROOT Hips
{
	OFFSET	0	0	0
	CHANNELS 6  Xposition Yposition Zposition Xrotation Yrotation Zrotation
	JOINT Spine
	{
		OFFSET	0	6.86795	1.37906
		CHANNELS 3  Xrotation Yrotation Zrotation
		JOINT Spine1
		{
			OFFSET	0	11.7606	-2.1001
			CHANNELS 3  Xrotation Yrotation Zrotation
			JOINT Spine2
			{
				OFFSET	0	8.91491	0.955545
				CHANNELS 3  Xrotation Yrotation Zrotation
				JOINT Spine3
				{
					OFFSET	0	10.6685	3.17115
					CHANNELS 3  Xrotation Yrotation Zrotation
					JOINT Spine4
					{
						OFFSET	0	15.7927	-1.61708
						CHANNELS 3  Xrotation Yrotation Zrotation
						JOINT Neck
						{
							OFFSET	0	7.53935	-5.28175
							CHANNELS 3  Xrotation Yrotation Zrotation
							JOINT Head
							{
								OFFSET	0	9.05142	-2.70913
								CHANNELS 3  Xrotation Yrotation Zrotation
								End Site
								{
									OFFSET	0	18.8799	-0.913543
								}
							}
						}
					}
					JOINT LeftShoulder
					{
						OFFSET	-4.53621	19.1949	-9.05142
						CHANNELS 3  Xrotation Yrotation Zrotation
						JOINT LeftArm
						{
							OFFSET	-9.8955	-2.70912	3.47568
							CHANNELS 3  Xrotation Yrotation Zrotation
							JOINT LeftForeArm
							{
								OFFSET	-33.3495	-1.52213	2.38045
								CHANNELS 3  Xrotation Yrotation Zrotation
								JOINT LeftHand
								{
									OFFSET	-27.054	-1.86958	1.93108
									CHANNELS 3  Xrotation Yrotation Zrotation
									End Site
									{
										OFFSET	-9.87335	-0.682306	0.704704
									}
								}
							}
						}
					}
					JOINT RightShoulder
					{
						OFFSET	4.53621	19.1949	-9.05142
						CHANNELS 3  Xrotation Yrotation Zrotation
						JOINT RightArm
						{
							OFFSET	9.8955	-2.70912	3.47568
							CHANNELS 3  Xrotation Yrotation Zrotation
							JOINT RightForeArm
							{
								OFFSET	33.3495	-1.52213	2.38045
								CHANNELS 3  Xrotation Yrotation Zrotation
								JOINT RightHand
								{
									OFFSET	27.054	-1.86958	1.93108
									CHANNELS 3  Xrotation Yrotation Zrotation
									End Site
									{
										OFFSET	9.87335	-0.682306	0.704704
									}
								}
							}
						}
					}
				}
			}
		}
	}
	JOINT LeftUpLeg
	{
		OFFSET	-9.35843	-3.43397	-0.689532
		CHANNELS 3  Xrotation Yrotation Zrotation
		JOINT LeftLeg
		{
			OFFSET	-2.06148	-40.3938	-0.631444
			CHANNELS 3  Xrotation Yrotation Zrotation
			JOINT LeftFoot
			{
				OFFSET	-2.01493	-37.1416	3.19418
				CHANNELS 3  Xrotation Yrotation Zrotation
				JOINT LeftToeBase
				{
					OFFSET	0	-4.59973	-12.2169
					CHANNELS 3  Xrotation Yrotation Zrotation
					End Site
					{
						OFFSET	0	-1.83989	-7.35956
					}
				}
			}
		}
	}
	JOINT RightUpLeg
	{
		OFFSET	9.35843	-3.43397	-0.689532
		CHANNELS 3  Xrotation Yrotation Zrotation
		JOINT RightLeg
		{
			OFFSET	2.06148	-40.3938	-0.631444
			CHANNELS 3  Xrotation Yrotation Zrotation
			JOINT RightFoot
			{
				OFFSET	2.01493	-37.1416	3.19418
				CHANNELS 3  Xrotation Yrotation Zrotation
				JOINT RightToeBase
				{
					OFFSET	0	-4.59973	-12.2169
					CHANNELS 3  Xrotation Yrotation Zrotation
					End Site
					{
						OFFSET	0	-1.83989	-7.35956
					}
				}
			}
		}
	}
}
MOTION
Frames: 15
Frame Time: 0.020408
 0 -8.54439 2.99032 -0 0 -0 -0 0 -0 -0 0 -0 -0 0 -0 -0 0 -0 -0 0 -0 -0 0 -0 -0 0 -0 -0 0 -0 -0 0 -0 -0 0 -0 -0 0 -0 -0 0 -0 -0 0 -0 -0 0 -0 -0 0 -0 -0 0 -0 -0 0 -0 -0 0 -0 -0 0 -0 -0 0 -0 -0 0 -0 -0 0 -0 -0 0 -0
 71.9243 91.345 -258.616 1.92626 176.269 -8.12365 0.000121838 -0.00684535 1.01968 176.905 -179.986 -178.301 178.03 -179.959 -178.301 1.308 -0.00684535 1.01968 171.102 -179.947 -179.664 157.802 163.017 -172.771 172.154 149.231 -173.483 1.14508 20.1572 1.67868 165.181 -126.912 -121.911 173.561 -153.205 175.378 -0 -3.85459 -3.19175 179.422 151.329 -178.744 168.634 135.878 104.731 162.459 172.007 -175.727 -0 2.991 -15.5669 8.34839 13.7989 0.538035 164.314 168.43 179.893 163.067 -179.993 -176.951 0.227498 0 0 12.9524 7.28308 9.13813 165.138 -179.835 179.702 172.734 179.884 173.312 178.169 180 -180
 72.6384 91.2503 -258.581 1.91682 174.59 -7.79529 7.15636e-05 -0.00414002 0.990305 176.898 -179.992 -178.349 178.06 -179.975 -178.349 1.41516 -0.00414002 0.990305 170.839 -179.947 -179.674 157.024 163.054 -172.305 171.892 149.218 -173.282 1.2908 21.5916 1.84007 164.955 -127.44 -121.612 174.31 -153.427 175.687 -0 -3.69843 -3.63207 179.736 151.333 -179.427 166.998 135.134 106.744 162.308 171.43 -175.577 -0 2.86476 -15.3833 7.98563 14.1224 -0.631886 162.528 168.547 179.827 163.816 179.995 -177.058 0.226436 0 0 13.5093 6.54222 9.14885 164.847 -178.235 179.575 172.333 179.88 173.867 178.158 180 -180
 73.424 91.1443 -258.492 1.74544 172.914 -7.16599 0.000173615 -0.0106093 0.937523 176.87 -179.979 -178.437 178.02 -179.936 -178.437 1.35928 -0.0106093 0.937523 170.916 -179.951 -179.691 157.275 162.754 -171.705 171.954 148.906 -173.1 1.41457 22.793 1.96759 164.696 -128.004 -121.644 175.094 -153.578 176.044 -0 -3.57518 -4.06263 0.0376836 28.6849 -0.0818294 165.943 134.392 108.521 162.227 170.383 -175.392 -0 2.90187 -15.1312 7.84218 14.6045 -0.8729 161.004 168.992 -179.924 166.169 -179.974 -177.044 0.22832 0 0 13.8807 5.81991 8.88979 164.756 -176.702 179.501 171.716 179.891 174.289 178.147 180 -180
 74.0171 90.9665 -258.588 1.71613 171.107 -6.81718 0.000163078 -0.00998228 0.935945 176.893 -179.98 -178.44 178.034 -179.94 -178.44 1.34917 -0.00998228 0.935945 170.983 -179.951 -179.692 157.441 162.593 -171.281 172.004 148.788 -172.989 1.39794 22.967 1.93734 164.289 -128.488 -121.622 175.891 -153.198 176.385 -0 -3.68398 -4.46616 0.205403 28.6459 -0.446039 164.743 133.637 110.446 162.14 169.002 -174.965 -0 2.94259 -14.6188 7.94273 14.817 -1.73956 160.588 169.594 -179.902 166.857 -179.968 -176.998 0.228511 0 0 14.4703 4.85267 8.25897 164.832 -175.295 179.468 171.689 179.937 174.555 178.139 180 -180
 74.5505 90.9836 -258.807 1.91247 169.852 -6.15749 180 179.996 -179.128 176.914 179.992 -178.546 178.052 179.975 -178.546 1.3578 0.00415867 0.872189 171.002 -179.955 -179.713 157.472 162.387 -170.833 171.996 148.544 -172.834 1.39021 22.956 1.92705 164.011 -128.825 -121.721 176.59 -152.775 176.661 -0 -3.84499 -4.81637 0.487604 28.657 -1.05888 164.245 132.799 111.617 162.106 167.295 -174.442 -0 3.13898 -14.1011 8.18886 14.8349 -3.50189 160.794 170.14 179.932 166.487 -179.994 -176.973 0.226851 0 0 15.6304 3.98151 8.17445 165.044 -173.956 179.849 170.169 -179.928 174.837 178.129 180 -180
 75.0395 90.9523 -259.121 2.27328 169.036 -5.64507 180 179.99 -179.185 176.98 179.98 -178.642 178.118 179.94 -178.642 1.40558 0.0099264 0.814569 171.016 -179.958 -179.732 157.444 162.193 -170.466 171.965 148.276 -172.689 1.41504 22.8155 1.96732 163.857 -129.057 -121.768 177.178 -152.514 177.015 -0 -4.04556 -5.18004 0.587425 28.6609 -1.27568 163.427 131.885 113.113 162.048 165.942 -173.969 -0 3.27421 -13.6573 8.61059 14.962 -4.28338 161.24 170.519 -179.99 166.345 179.972 -176.914 0.225778 0 0 16.5327 3.06001 7.10948 165.201 -172.905 179.835 169.205 -179.982 174.94 178.126 180 -180
 75.5063 90.948 -259.465 2.32866 168.744 -5.06855 180 179.997 -179.23 177.027 179.994 -178.717 178.142 179.982 -178.717 1.36551 0.00293732 0.769944 171.198 -179.961 -179.746 157.95 161.984 -170.849 172.102 147.923 -172.773 1.37636 22.1632 1.93953 163.695 -129.06 -122.044 177.727 -152.498 177.324 -0 -4.12734 -5.31627 0.84499 28.5322 -1.83523 162.792 130.769 115.11 161.937 164.456 -173.403 -0 3.58566 -13.2554 8.95446 14.987 -4.749 162.395 170.743 179.976 166.822 179.999 -176.862 0.22573 0 0 17.1773 2.2369 6.33227 164.865 -171.968 -179.937 168.332 179.996 175.002 178.123 180 -180
 76.1612 90.6666 -259.839 2.46488 168.517 -4.59029 180 179.995 -179.284 177.073 179.99 -178.807 178.173 179.969 -178.807 1.34865 0.00517542 0.715677 171.325 -179.964 -179.764 158.306 161.934 -171.663 172.191 147.662 -172.966 1.36009 21.1729 1.95518 163.95 -128.848 -121.785 178.278 -152.381 177.51 -0 -4.1484 -5.49271 0.976475 28.4972 -2.12092 161.703 129.801 117.169 161.819 163.739 -172.967 -0 3.80957 -12.7836 9.26057 15.0413 -5.51296 164.854 170.817 179.916 167.449 179.994 -176.808 0.226411 0 0 18.2785 1.83164 6.07674 164.367 -171.224 -179.838 167.815 179.955 175.049 178.129 180 -180
 77.3224 90.3739 -260.104 2.5503 168.202 -4.0537 180 179.99 -179.339 177.094 179.98 -178.898 178.176 179.939 -178.897 1.31178 0.0101972 0.661502 171.45 -179.967 -179.782 158.676 161.824 -172.181 172.287 147.382 -173.084 1.23026 20.1569 1.80366 163.841 -128.647 -121.777 178.84 -152.328 177.872 -0 -4.06426 -5.40852 1.11034 28.5865 -2.41171 160.49 129.034 118.653 161.768 163.262 -172.909 -0 3.93834 -12.3454 9.26489 15.3421 -5.83442 166.93 170.791 179.967 168.491 179.997 -176.735 0.2277 0 0 19.2424 1.53825 6.0684 163.801 -170.627 -179.747 167.339 179.939 175.094 178.135 180 -180
 77.9597 90.1574 -260.115 2.48769 167.731 -3.511 180 179.996 -179.41 177.101 179.991 -179.017 178.161 179.974 -179.017 1.24835 0.00426483 0.589555 171.611 -179.971 -179.806 159.165 161.753 -172.802 172.429 147.167 -173.254 1.10171 19.5162 1.63471 163.499 -128.508 -121.758 179.403 -151.801 178.068 -0 -4.20537 -5.45028 1.51103 28.5324 -3.28273 159.637 128.358 120.732 161.662 162.927 -172.599 -0 4.03639 -11.6989 9.32794 15.6158 -5.87486 168.724 170.761 -179.935 169.394 -179.999 -176.616 0.228626 0 0 19.9721 1.15821 6.16169 162.941 -170.111 179.847 167.028 179.925 175.137 178.139 180 -180
 79.2009 89.8061 -260.392 2.40069 167.248 -2.94651 180 179.993 -179.487 177.118 179.986 -179.146 178.16 179.958 -179.146 1.20634 0.00693746 0.512684 171.741 -179.975 -179.831 159.556 161.567 -173.225 172.522 146.76 -173.329 1.0778 18.5616 1.6275 163.456 -128.088 -121.382 0.0172773 -28.8108 -1.62362 -0 -4.40075 -5.41136 1.54585 28.4457 -3.35855 159.113 127.886 122.33 161.518 162.865 -172.491 -0 3.97745 -10.7705 8.76618 16.0707 -5.25042 170 170.585 -179.893 171.657 179.937 -176.388 0.242945 0 0 21.264 1.28221 6.48678 161.56 -169.897 179.829 166.049 179.897 175.167 178.147 180 -180
 80.5733 89.4089 -260.52 2.3543 166.326 -2.71425 180 179.986 -179.572 177.09 179.973 -179.287 178.129 179.918 -179.287 1.17841 0.0136207 0.427515 171.754 -179.98 -179.859 159.638 161.536 -173.66 172.525 146.548 -173.408 1.09883 17.7192 1.68434 162.889 -127.667 -121.141 0.61229 -29.1144 -1.4717 -0 -4.52964 -5.42818 1.51742 28.5687 -3.29658 159.039 127.3 123.299 161.396 162.714 -172.538 -0 3.92911 -9.85358 8.22732 16.4187 -4.82881 171.113 170.459 -179.909 173.705 179.977 -176.168 0.248759 0 0 22.5558 1.48447 6.96417 160.392 -169.731 179.875 165.269 179.888 175.19 178.189 180 -180
 81.9518 89.0845 -260.743 2.19599 165.635 -2.35979 180 179.99 -179.652 176.996 179.979 -179.42 178.041 179.938 -179.42 1.13309 0.0103508 0.348025 171.682 -179.983 -179.885 159.535 161.7 -174.497 172.479 146.505 -173.599 1.19007 16.957 1.84852 162.485 -127.313 -121.068 1.31833 -29.3187 -1.10018 -0 -4.53701 -5.44088 1.38888 28.6378 -3.01705 158.684 126.732 124.42 161.34 162.962 -172.674 -0 3.7597 -8.9849 7.46689 17.1026 -3.67539 171.82 170.111 179.842 177.387 179.811 -175.822 0.238044 0 0 23.8995 1.43998 7.1493 158.464 -169.517 179.917 164.753 179.934 175.178 178.278 180 -180
 83.2451 88.9825 -260.785 2.04643 165.008 -1.83256 180 179.978 -179.731 176.918 179.955 -179.551 177.982 179.866 -179.551 1.13965 0.0222997 0.269333 171.52 -179.987 -179.911 159.138 162.009 -175.321 172.354 146.687 -173.796 1.15754 16.3327 1.81702 162.154 -127.001 -121.005 1.98408 -29.446 -0.739658 -0 -4.53781 -5.46001 1.50673 28.5142 -3.2734 159.553 126.196 125.043 161.245 163.434 -172.586 -0 3.58996 -7.98407 6.567 17.3976 -2.11914 172.093 170.238 179.817 0.784471 0.012936 4.63182 0.222365 0 0 24.8849 1.05137 7.12964 156.36 -169.199 179.838 164.022 -179.965 175.116 178.357 180 -180
